# xmcd
#
# Track frame offsets: 
#        150
#        15306
#        43088
#        62826
#        86040
#        103729
#        127322
#        148581
#        169970
#        194404
#        247408
#        260579
#
# Disc length: 4144 seconds
#
# Revision: 5
# Processed by: cddbd v1.5.2PL0 Copyright (c) Steve Scherf et al.
# Submitted via: ExactAudioCopy v1.0b1
#
DISCID=ba102e0c
DTITLE=四分衛 - Deep Blue
DYEAR=2001
DGENRE=Rock
TTITLE0=ㄋㄠ種
TTITLE1=魔毯
TTITLE2=項鍊
TTITLE3=雨和眼淚
TTITLE4=Lizard King
TTITLE5=珊瑚礁
TTITLE6=銀河鐵道
TTITLE7=Butterfly
TTITLE8=暈眩
TTITLE9=迴音
TTITLE10=眼神
TTITLE11=Deep Blue(演奏曲)
EXTD=\nYEAR: 2001  ID3G:  17
EXTT0=
EXTT1=
EXTT2=
EXTT3=
EXTT4=
EXTT5=
EXTT6=
EXTT7=
EXTT8=
EXTT9=
EXTT10=
EXTT11=
PLAYORDER=
